<?xml version="1.0" standalone="no"?>
<!DOCTYPE svg PUBLIC "-//W3C//DTD SVG 20010904//EN"
 "http://www.w3.org/TR/2001/REC-SVG-20010904/DTD/svg10.dtd">
<svg version="1.0" xmlns="http://www.w3.org/2000/svg"
 width="512.000000pt" height="512.000000pt" viewBox="0 0 512.000000 512.000000"
 preserveAspectRatio="xMidYMid meet">
<metadata>
Created by potrace 1.11, written by Peter Selinger 2001-2013
</metadata>
<g transform="translate(0.000000,512.000000) scale(0.100000,-0.100000)"
fill="#000000" stroke="none">
<path d="M2362 5110 c-258 -33 -468 -134 -593 -285 -165 -200 -233 -463 -233
-910 0 -212 2 -252 22 -342 95 -436 347 -763 694 -899 110 -43 207 -57 347
-51 146 6 212 22 336 81 311 147 538 462 627 869 20 90 22 131 22 342 0 345
-33 542 -124 733 -48 102 -82 152 -151 221 -107 109 -252 182 -434 221 -115
24 -393 35 -513 20z"/>
<path d="M1825 2486 c-666 -144 -948 -332 -1089 -726 -74 -205 -104 -450 -121
-977 -7 -222 -8 -218 82 -304 76 -73 121 -107 218 -162 358 -204 944 -317
1645 -317 870 0 1539 169 1852 468 105 100 100 76 88 414 -10 311 -21 444 -46
598 -100 597 -383 843 -1157 1005 l-168 35 -52 -45 c-209 -185 -619 -223 -902
-85 -44 21 -103 59 -132 84 -28 25 -55 46 -60 45 -4 0 -75 -15 -158 -33z"/>
</g>
</svg>
